# xmcd CD database file
#
# Track frame offsets:
#	150
#	17753
#	33857
#	51350
#	70099
#	84212
#	101213
#	118498
#	133666
#	154427
#	169939
#	188414
#
# Disc length: 2727 seconds
#
# Revision: 1
# Processed by: cddbd v1.5.2PL0 Copyright (c) Steve Scherf et al.
# Submitted via: CDex 1.70beta2
#
DISCID=a10aa50c
DTITLE=Seal - Soul
DYEAR=2008
DGENRE=Soul
TTITLE0=A change is gonna come
TTITLE1=I can't stand the rain
TTITLE2=It's a man's man's man's world
TTITLE3=Here I Am (come and take me)
TTITLE4=I've been loving you too long
TTITLE5=It's alright
TTITLE6=If you don't know me by now
TTITLE7=Knock on wood
TTITLE8=I'm still in love with you
TTITLE9=Free
TTITLE10=Stand by me
TTITLE11=People get ready
EXTD=YEAR: 2008
EXTT0=
EXTT1=
EXTT2=
EXTT3=
EXTT4=
EXTT5=
EXTT6=
EXTT7=
EXTT8=
EXTT9=
EXTT10=
EXTT11=
PLAYORDER=
